<svg aria-roledescription="er" role="graphics-document document" viewBox="0 0 468.9989013671875 468" style="max-width: 468.999px; background-color: white;" xmlns:xlink="http://www.w3.org/1999/xlink" xmlns="http://www.w3.org/2000/svg" width="100%" id="mermaid-0"><style>#mermaid-0{font-family:"trebuchet ms",verdana,arial,sans-serif;font-size:16px;fill:#000000;}#mermaid-0 .error-icon{fill:#552222;}#mermaid-0 .error-text{fill:#552222;stroke:#552222;}#mermaid-0 .edge-thickness-normal{stroke-width:2px;}#mermaid-0 .edge-thickness-thick{stroke-width:3.5px;}#mermaid-0 .edge-pattern-solid{stroke-dasharray:0;}#mermaid-0 .edge-pattern-dashed{stroke-dasharray:3;}#mermaid-0 .edge-pattern-dotted{stroke-dasharray:2;}#mermaid-0 .marker{fill:#000000;stroke:#000000;}#mermaid-0 .marker.cross{stroke:#000000;}#mermaid-0 svg{font-family:"trebuchet ms",verdana,arial,sans-serif;font-size:16px;}#mermaid-0 .entityBox{fill:#cde498;stroke:#13540c;}#mermaid-0 .attributeBoxOdd{fill:#ffffff;stroke:#13540c;}#mermaid-0 .attributeBoxEven{fill:#f2f2f2;stroke:#13540c;}#mermaid-0 .relationshipLabelBox{fill:hsl(78.1578947368, 58.4615384615%, 84.5098039216%);opacity:0.7;background-color:hsl(78.1578947368, 58.4615384615%, 84.5098039216%);}#mermaid-0 .relationshipLabelBox rect{opacity:0.5;}#mermaid-0 .relationshipLine{stroke:#000000;}#mermaid-0 .entityTitleText{text-anchor:middle;font-size:18px;fill:#000000;}#mermaid-0 :root{--mermaid-font-family:"trebuchet ms",verdana,arial,sans-serif;}</style><g/><defs><marker orient="auto" markerHeight="18" markerWidth="18" refY="9" refX="0" id="ONLY_ONE_START"><path d="M9,0 L9,18 M15,0 L15,18" fill="none" stroke="gray"/></marker></defs><defs><marker orient="auto" markerHeight="18" markerWidth="18" refY="9" refX="18" id="ONLY_ONE_END"><path d="M3,0 L3,18 M9,0 L9,18" fill="none" stroke="gray"/></marker></defs><defs><marker orient="auto" markerHeight="18" markerWidth="30" refY="9" refX="0" id="ZERO_OR_ONE_START"><circle r="6" cy="9" cx="21" fill="white" stroke="gray"/><path d="M9,0 L9,18" fill="none" stroke="gray"/></marker></defs><defs><marker orient="auto" markerHeight="18" markerWidth="30" refY="9" refX="30" id="ZERO_OR_ONE_END"><circle r="6" cy="9" cx="9" fill="white" stroke="gray"/><path d="M21,0 L21,18" fill="none" stroke="gray"/></marker></defs><defs><marker orient="auto" markerHeight="36" markerWidth="45" refY="18" refX="18" id="ONE_OR_MORE_START"><path d="M0,18 Q 18,0 36,18 Q 18,36 0,18 M42,9 L42,27" fill="none" stroke="gray"/></marker></defs><defs><marker orient="auto" markerHeight="36" markerWidth="45" refY="18" refX="27" id="ONE_OR_MORE_END"><path d="M3,9 L3,27 M9,18 Q27,0 45,18 Q27,36 9,18" fill="none" stroke="gray"/></marker></defs><defs><marker orient="auto" markerHeight="36" markerWidth="57" refY="18" refX="18" id="ZERO_OR_MORE_START"><circle r="6" cy="18" cx="48" fill="white" stroke="gray"/><path d="M0,18 Q18,0 36,18 Q18,36 0,18" fill="none" stroke="gray"/></marker></defs><defs><marker orient="auto" markerHeight="36" markerWidth="57" refY="18" refX="39" id="ZERO_OR_MORE_END"><circle r="6" cy="18" cx="9" fill="white" stroke="gray"/><path d="M21,18 Q39,0 57,18 Q39,36 21,18" fill="none" stroke="gray"/></marker></defs><path style="stroke: gray; fill: none;" marker-start="url(#ZERO_OR_MORE_START)" marker-end="url(#ZERO_OR_MORE_END)" d="M105.99890846619631,273L101.54258048045655,281.3333333333333C97.08625249471682,289.6666666666667,88.17359652323732,306.3333333333333,83.71726853749756,323C79.26094055175781,339.6666666666667,79.26094055175781,356.3333333333333,79.26094055175781,364.6666666666667L79.26094055175781,373" class="er relationshipLine"/><path style="stroke: gray; fill: none;" marker-start="url(#ZERO_OR_MORE_START)" marker-end="url(#ZERO_OR_MORE_END)" d="M177.9392876854555,273L187.2646415424857,281.3333333333333C196.5899953995159,289.6666666666667,215.2407031135763,306.3333333333333,235.14438396790933,323C255.0480648222424,339.6666666666667,276.204718816848,356.3333333333333,286.78304581415085,364.6666666666667L297.3613728114537,373" class="er relationshipLine"/><path style="stroke: gray; fill: none;" marker-start="url(#ZERO_OR_MORE_START)" marker-end="url(#ONLY_ONE_END)" d="M79.26094055175781,86L79.26094055175781,94.33333333333333C79.26094055175781,102.66666666666667,79.26094055175781,119.33333333333333,83.71726853749756,136C88.17359652323732,152.66666666666666,97.08625249471682,169.33333333333334,101.54258048045655,177.66666666666666L105.99890846619631,186" class="er relationshipLine"/><path style="stroke: gray; fill: none;" marker-start="url(#ZERO_OR_MORE_START)" marker-end="url(#ZERO_OR_MORE_END)" d="M394.9638442993164,262.5L394.9638442993164,272.5833333333333C394.9638442993164,282.6666666666667,394.9638442993164,302.8333333333333,390.20193953741165,321.25C385.44003477550694,339.6666666666667,375.91622525169737,356.3333333333333,371.1543204897926,364.6666666666667L366.39241572788785,373" class="er relationshipLine"/><path style="stroke: gray; fill: none;" marker-start="url(#ZERO_OR_MORE_START)" marker-end="url(#ONLY_ONE_END)" d="M358.5180611667863,75.5L364.59235835554136,85.58333333333333C370.66665554429636,95.66666666666667,382.81524992180636,115.83333333333333,388.8895471105614,136C394.9638442993164,156.16666666666666,394.9638442993164,176.33333333333334,394.9638442993164,186.41666666666666L394.9638442993164,196.5" class="er relationshipLine"/><path style="stroke: gray; fill: none;" marker-start="url(#ZERO_OR_MORE_START)" marker-end="url(#ONLY_ONE_END)" d="M314.85384727386105,75.5L301.36010786615697,85.58333333333333C287.86636845845294,95.66666666666667,260.87888964304483,115.83333333333333,238.05979637831055,134.25C215.2407031135763,152.66666666666666,196.5899953995159,169.33333333333334,187.2646415424857,177.66666666666666L177.9392876854555,186" class="er relationshipLine"/><g transform="translate(61.15113830566406,186 )" id="entity-habits-59333331-6c3a-54f1-a56e-d211c6383727"><rect height="87" width="136.2196044921875" y="0" x="0" class="er entityBox"/><text style="dominant-baseline: middle; text-anchor: middle; font-size: 12px;" transform="translate(68.10980224609375,12)" y="0" x="0" id="text-entity-habits-59333331-6c3a-54f1-a56e-d211c6383727" class="er entityLabel">habits</text><rect height="21" width="54.113128662109375" y="24" x="0" class="er attributeBoxOdd"/><text style="dominant-baseline: middle; font-size: 10.2px;" transform="translate(5,34.5)" y="0" x="0" id="text-entity-habits-59333331-6c3a-54f1-a56e-d211c6383727-attr-1-type" class="er entityLabel">String</text><rect height="21" width="58.311492919921875" y="24" x="54.113128662109375" class="er attributeBoxOdd"/><text style="dominant-baseline: middle; font-size: 10.2px;" transform="translate(59.113128662109375,34.5)" y="0" x="0" id="text-entity-habits-59333331-6c3a-54f1-a56e-d211c6383727-attr-1-name" class="er entityLabel">id</text><rect height="21" width="23.79498291015625" y="24" x="112.42462158203125" class="er attributeBoxOdd"/><text style="dominant-baseline: middle; font-size: 10.2px;" transform="translate(117.42462158203125,34.5)" y="0" x="0" id="text-entity-habits-59333331-6c3a-54f1-a56e-d211c6383727-attr-1-key" class="er entityLabel">PK</text><rect height="21" width="54.113128662109375" y="45" x="0" class="er attributeBoxEven"/><text style="dominant-baseline: middle; font-size: 10.2px;" transform="translate(5,55.5)" y="0" x="0" id="text-entity-habits-59333331-6c3a-54f1-a56e-d211c6383727-attr-2-type" class="er entityLabel">String</text><rect height="21" width="58.311492919921875" y="45" x="54.113128662109375" class="er attributeBoxEven"/><text style="dominant-baseline: middle; font-size: 10.2px;" transform="translate(59.113128662109375,55.5)" y="0" x="0" id="text-entity-habits-59333331-6c3a-54f1-a56e-d211c6383727-attr-2-name" class="er entityLabel">title</text><rect height="21" width="23.79498291015625" y="45" x="112.42462158203125" class="er attributeBoxEven"/><text style="dominant-baseline: middle; font-size: 10.2px;" transform="translate(117.42462158203125,55.5)" y="0" x="0" id="text-entity-habits-59333331-6c3a-54f1-a56e-d211c6383727-attr-2-key" class="er entityLabel"/><rect height="21" width="54.113128662109375" y="66" x="0" class="er attributeBoxOdd"/><text style="dominant-baseline: middle; font-size: 10.2px;" transform="translate(5,76.5)" y="0" x="0" id="text-entity-habits-59333331-6c3a-54f1-a56e-d211c6383727-attr-3-type" class="er entityLabel">DateTime</text><rect height="21" width="58.311492919921875" y="66" x="54.113128662109375" class="er attributeBoxOdd"/><text style="dominant-baseline: middle; font-size: 10.2px;" transform="translate(59.113128662109375,76.5)" y="0" x="0" id="text-entity-habits-59333331-6c3a-54f1-a56e-d211c6383727-attr-3-name" class="er entityLabel">created_at</text><rect height="21" width="23.79498291015625" y="66" x="112.42462158203125" class="er attributeBoxOdd"/><text style="dominant-baseline: middle; font-size: 10.2px;" transform="translate(117.42462158203125,76.5)" y="0" x="0" id="text-entity-habits-59333331-6c3a-54f1-a56e-d211c6383727-attr-3-key" class="er entityLabel"/></g><g transform="translate(20,20 )" id="entity-weekdays-7ad785d5-6243-5919-b67b-0d8db41cff08"><rect height="66" width="118.52188110351562" y="0" x="0" class="er entityBox"/><text style="dominant-baseline: middle; text-anchor: middle; font-size: 12px;" transform="translate(59.26094055175781,12)" y="0" x="0" id="text-entity-weekdays-7ad785d5-6243-5919-b67b-0d8db41cff08" class="er entityLabel">week_days</text><rect height="21" width="36.947052001953125" y="24" x="0" class="er attributeBoxOdd"/><text style="dominant-baseline: middle; font-size: 10.2px;" transform="translate(5,34.5)" y="0" x="0" id="text-entity-weekdays-7ad785d5-6243-5919-b67b-0d8db41cff08-attr-1-type" class="er entityLabel">String</text><rect height="21" width="57.77984619140625" y="24" x="36.947052001953125" class="er attributeBoxOdd"/><text style="dominant-baseline: middle; font-size: 10.2px;" transform="translate(41.947052001953125,34.5)" y="0" x="0" id="text-entity-weekdays-7ad785d5-6243-5919-b67b-0d8db41cff08-attr-1-name" class="er entityLabel">id</text><rect height="21" width="23.79498291015625" y="24" x="94.72689819335938" class="er attributeBoxOdd"/><text style="dominant-baseline: middle; font-size: 10.2px;" transform="translate(99.72689819335938,34.5)" y="0" x="0" id="text-entity-weekdays-7ad785d5-6243-5919-b67b-0d8db41cff08-attr-1-key" class="er entityLabel">PK</text><rect height="21" width="36.947052001953125" y="45" x="0" class="er attributeBoxEven"/><text style="dominant-baseline: middle; font-size: 10.2px;" transform="translate(5,55.5)" y="0" x="0" id="text-entity-weekdays-7ad785d5-6243-5919-b67b-0d8db41cff08-attr-2-type" class="er entityLabel">Int</text><rect height="21" width="57.77984619140625" y="45" x="36.947052001953125" class="er attributeBoxEven"/><text style="dominant-baseline: middle; font-size: 10.2px;" transform="translate(41.947052001953125,55.5)" y="0" x="0" id="text-entity-weekdays-7ad785d5-6243-5919-b67b-0d8db41cff08-attr-2-name" class="er entityLabel">week_day</text><rect height="21" width="23.79498291015625" y="45" x="94.72689819335938" class="er attributeBoxEven"/><text style="dominant-baseline: middle; font-size: 10.2px;" transform="translate(99.72689819335938,55.5)" y="0" x="0" id="text-entity-weekdays-7ad785d5-6243-5919-b67b-0d8db41cff08-attr-2-key" class="er entityLabel"/></g><g transform="translate(340.9287796020508,196.5 )" id="entity-days-1423ac63-3526-5a52-8359-97be9f67b867"><rect height="66" width="108.07012939453125" y="0" x="0" class="er entityBox"/><text style="dominant-baseline: middle; text-anchor: middle; font-size: 12px;" transform="translate(54.035064697265625,12)" y="0" x="0" id="text-entity-days-1423ac63-3526-5a52-8359-97be9f67b867" class="er entityLabel">days</text><rect height="21" width="54.113128662109375" y="24" x="0" class="er attributeBoxOdd"/><text style="dominant-baseline: middle; font-size: 10.2px;" transform="translate(5,34.5)" y="0" x="0" id="text-entity-days-1423ac63-3526-5a52-8359-97be9f67b867-attr-1-type" class="er entityLabel">String</text><rect height="21" width="30.162017822265625" y="24" x="54.113128662109375" class="er attributeBoxOdd"/><text style="dominant-baseline: middle; font-size: 10.2px;" transform="translate(59.113128662109375,34.5)" y="0" x="0" id="text-entity-days-1423ac63-3526-5a52-8359-97be9f67b867-attr-1-name" class="er entityLabel">id</text><rect height="21" width="23.79498291015625" y="24" x="84.275146484375" class="er attributeBoxOdd"/><text style="dominant-baseline: middle; font-size: 10.2px;" transform="translate(89.275146484375,34.5)" y="0" x="0" id="text-entity-days-1423ac63-3526-5a52-8359-97be9f67b867-attr-1-key" class="er entityLabel">PK</text><rect height="21" width="54.113128662109375" y="45" x="0" class="er attributeBoxEven"/><text style="dominant-baseline: middle; font-size: 10.2px;" transform="translate(5,55.5)" y="0" x="0" id="text-entity-days-1423ac63-3526-5a52-8359-97be9f67b867-attr-2-type" class="er entityLabel">DateTime</text><rect height="21" width="30.162017822265625" y="45" x="54.113128662109375" class="er attributeBoxEven"/><text style="dominant-baseline: middle; font-size: 10.2px;" transform="translate(59.113128662109375,55.5)" y="0" x="0" id="text-entity-days-1423ac63-3526-5a52-8359-97be9f67b867-attr-2-name" class="er entityLabel">date</text><rect height="21" width="23.79498291015625" y="45" x="84.275146484375" class="er attributeBoxEven"/><text style="dominant-baseline: middle; font-size: 10.2px;" transform="translate(89.275146484375,55.5)" y="0" x="0" id="text-entity-days-1423ac63-3526-5a52-8359-97be9f67b867-attr-2-key" class="er entityLabel"/></g><g transform="translate(294.9638442993164,30.5 )" id="entity-dayhabits-469d66ca-4756-5919-88f9-7358685a3ac0"><rect height="45" width="100" y="0" x="0" class="er entityBox"/><text style="dominant-baseline: middle; text-anchor: middle; font-size: 12px;" transform="translate(50,12)" y="0" x="0" id="text-entity-dayhabits-469d66ca-4756-5919-88f9-7358685a3ac0" class="er entityLabel">day_habits</text><rect height="21" width="43.94526163736979" y="24" x="0" class="er attributeBoxOdd"/><text style="dominant-baseline: middle; font-size: 10.2px;" transform="translate(5,34.5)" y="0" x="0" id="text-entity-dayhabits-469d66ca-4756-5919-88f9-7358685a3ac0-attr-1-type" class="er entityLabel">String</text><rect height="21" width="25.261545817057293" y="24" x="43.94526163736979" class="er attributeBoxOdd"/><text style="dominant-baseline: middle; font-size: 10.2px;" transform="translate(48.94526163736979,34.5)" y="0" x="0" id="text-entity-dayhabits-469d66ca-4756-5919-88f9-7358685a3ac0-attr-1-name" class="er entityLabel">id</text><rect height="21" width="30.793192545572918" y="24" x="69.20680745442708" class="er attributeBoxOdd"/><text style="dominant-baseline: middle; font-size: 10.2px;" transform="translate(74.20680745442708,34.5)" y="0" x="0" id="text-entity-dayhabits-469d66ca-4756-5919-88f9-7358685a3ac0-attr-1-key" class="er entityLabel">PK</text></g><g transform="translate(29.260940551757812,373 )" id="entity-WeekDay-a01a907d-b375-5b5a-82e5-0dc7ec80d6b5"><rect height="75" width="100" y="0" x="0" class="er entityBox"/><text style="dominant-baseline: middle; text-anchor: middle; font-size: 12px;" transform="translate(50,37.5)" y="0" x="0" id="text-entity-WeekDay-a01a907d-b375-5b5a-82e5-0dc7ec80d6b5" class="er entityLabel">WeekDay</text></g><g transform="translate(294.9638442993164,373 )" id="entity-DayHabit-5ce25473-23d3-58c3-9cc5-32233c8c58f9"><rect height="75" width="100" y="0" x="0" class="er entityBox"/><text style="dominant-baseline: middle; text-anchor: middle; font-size: 12px;" transform="translate(50,37.5)" y="0" x="0" id="text-entity-DayHabit-5ce25473-23d3-58c3-9cc5-32233c8c58f9" class="er entityLabel">DayHabit</text></g><rect height="14" width="56.359375" y="313.8293151855469" x="56.14282989501953" class="er relationshipLabelBox"/><text style="text-anchor: middle; dominant-baseline: middle; font-size: 12px;" y="320.8293151855469" x="84.32251739501953" id="rel1" class="er relationshipLabel">weekDays</text><rect height="14" width="53.375" y="317.2316589355469" x="209.93060302734375" class="er relationshipLabelBox"/><text style="text-anchor: middle; dominant-baseline: middle; font-size: 12px;" y="324.2316589355469" x="236.61810302734375" id="rel2" class="er relationshipLabel">dayHabits</text><rect height="14" width="26.6875" y="131.1707000732422" x="70.97876739501953" class="er relationshipLabelBox"/><text style="text-anchor: middle; dominant-baseline: middle; font-size: 12px;" y="138.1707000732422" x="84.32251739501953" id="rel3" class="er relationshipLabel">habit</text><rect height="14" width="53.375" y="313.2994689941406" x="363.7554931640625" class="er relationshipLabelBox"/><text style="text-anchor: middle; dominant-baseline: middle; font-size: 12px;" y="320.2994689941406" x="390.4429931640625" id="rel4" class="er relationshipLabel">dayHabits</text><rect height="14" width="19.359375" y="125.74607849121094" x="378.17828369140625" class="er relationshipLabelBox"/><text style="text-anchor: middle; dominant-baseline: middle; font-size: 12px;" y="132.74607849121094" x="387.85797119140625" id="rel5" class="er relationshipLabel">day</text><rect height="14" width="26.6875" y="121.82542419433594" x="231.49209594726562" class="er relationshipLabelBox"/><text style="text-anchor: middle; dominant-baseline: middle; font-size: 12px;" y="128.82542419433594" x="244.83584594726562" id="rel6" class="er relationshipLabel">habit</text></svg>